<?xml version="1.0" encoding="UTF-8" standalone="no"?>
<svg width="72px" height="42px" viewBox="0 0 72 42" version="1.1" xmlns="http://www.w3.org/2000/svg" xmlns:xlink="http://www.w3.org/1999/xlink">
    <!-- Generator: Sketch 39.1 (31720) - http://www.bohemiancoding.com/sketch -->
    <title>Shape</title>
    <desc>Created with Sketch.</desc>
    <defs></defs>
    <g id="Page-1" stroke="none" stroke-width="1" fill="none" fill-rule="evenodd">
        <g id="Artboard" transform="translate(-14.000000, -29.000000)" fill="#FCF7F8">
            <g id="noun_256219_cc" transform="translate(50.000000, 50.000000) rotate(90.000000) translate(-50.000000, -50.000000) translate(29.000000, 14.000000)">
                <g id="Group" transform="translate(0.000000, 0.000000)">
                    <path d="M40,31.9 C41.1,33 41.7,34.4 41.7,36 C41.7,37.5 41.1,39 40,40.1 L10.2,69.9 C9.1,71 7.6,71.6 6.1,71.6 C4.6,71.6 3.1,71 2,69.9 C-0.2,67.7 -0.2,64 2,61.8 L27.8,36 L2,10.3 C-0.2,8.1 -0.2,4.4 2,2.2 C4.2,1.15463195e-14 7.9,1.15463195e-14 10.1,2.2 L40,31.9 L40,31.9 Z" id="Shape"></path>
                </g>
            </g>
        </g>
    </g>
</svg>