<?xml version="1.0" encoding="UTF-8" standalone="no"?>
<svg width="100px" height="100px" viewBox="0 0 100 100" version="1.1" xmlns="http://www.w3.org/2000/svg" xmlns:xlink="http://www.w3.org/1999/xlink">
    <!-- Generator: Sketch 39.1 (31720) - http://www.bohemiancoding.com/sketch -->
    <title>Artboard 3</title>
    <desc>Created with Sketch.</desc>
    <defs></defs>
    <g id="Page-1" stroke="none" stroke-width="1" fill="none" fill-rule="evenodd">
        <g id="Artboard-3" fill="#000000">
            <g id="noun_411999_cc" transform="translate(8.000000, 22.000000)">
                <g id="Group">
                    <g>
                        <path d="M75.6,0 L8.4,0 C3.7688,0 0,3.8361 0,8.55 L0,11.4 L84,11.4 L84,8.55 C84,3.8361 80.2312,0 75.6,0 L75.6,0 Z" id="Shape"></path>
                        <rect id="Rectangle-path" x="0" y="14.25" width="84" height="5.7"></rect>
                        <path d="M0,48.45 C0,53.1639 3.7688,57 8.4,57 L75.6,57 C80.3292,57 84,51.63915 84,47.025 L84,22.8 L0,22.8 L0,48.45 L0,48.45 Z M12.6,37.05 L26.6,37.05 C27.3728,37.05 28,37.6884 28,38.475 C28,39.2616 27.3728,39.9 26.6,39.9 L12.6,39.9 C11.8272,39.9 11.2,39.2616 11.2,38.475 C11.2,37.6884 11.8272,37.05 12.6,37.05 L12.6,37.05 Z M12.6,42.75 L35,42.75 C35.7728,42.75 36.4,43.3884 36.4,44.175 C36.4,44.9616 35.7728,45.6 35,45.6 L12.6,45.6 C11.8272,45.6 11.2,44.9616 11.2,44.175 C11.2,43.3884 11.8272,42.75 12.6,42.75 L12.6,42.75 Z" id="Shape"></path>
                    </g>
                </g>
            </g>
        </g>
    </g>
</svg>