<?xml version="1.0" encoding="UTF-8" standalone="no"?>
<svg width="100px" height="100px" viewBox="0 0 100 100" version="1.1" xmlns="http://www.w3.org/2000/svg" xmlns:xlink="http://www.w3.org/1999/xlink">
    <!-- Generator: Sketch 39.1 (31720) - http://www.bohemiancoding.com/sketch -->
    <title>Artboard</title>
    <desc>Created with Sketch.</desc>
    <defs></defs>
    <g id="Page-1" stroke="none" stroke-width="1" fill="none" fill-rule="evenodd">
        <g id="Artboard" fill="#FFFFFF">
            <g id="home" transform="translate(18.000000, 20.000000)">
                <g id="Group">
                    <path d="M62.541,18.998 L32.529,0.314 C32.489,0.289 32.444,0.285 32.403,0.267 C32.332,0.235 32.264,0.201 32.188,0.187 C32.129,0.176 32.071,0.181 32.011,0.181 C31.943,0.18 31.876,0.175 31.808,0.188 C31.737,0.202 31.673,0.235 31.606,0.264 C31.562,0.283 31.514,0.288 31.472,0.314 L1.46,18.998 C0.991,19.29 0.848,19.906 1.139,20.375 C1.328,20.68 1.655,20.847 1.989,20.847 C2.169,20.847 2.352,20.798 2.516,20.696 L32,2.341 L61.483,20.696 C61.647,20.799 61.83,20.847 62.01,20.847 C62.344,20.847 62.67,20.68 62.86,20.375 C63.153,19.906 63.009,19.29 62.541,18.998 L62.541,18.998 Z" id="Shape"></path>
                    <path d="M51.001,21.43 C50.449,21.43 50.001,21.877 50.001,22.43 L50.001,57.43 L14.001,57.43 L14.001,22.743 C14.001,22.19 13.553,21.743 13.001,21.743 C12.449,21.743 12.001,22.19 12.001,22.743 L12.001,58.43 C12.001,58.983 12.449,59.43 13.001,59.43 L51.001,59.43 C51.553,59.43 52.001,58.983 52.001,58.43 C52.001,58.374 51.978,58.326 51.969,58.273 C51.978,58.22 52.001,58.172 52.001,58.116 L52.001,22.43 C52.001,21.877 51.553,21.43 51.001,21.43 L51.001,21.43 Z" id="Shape"></path>
                </g>
            </g>
        </g>
    </g>
</svg>