<?xml version="1.0" encoding="UTF-8" standalone="no"?>
<svg width="100px" height="100px" viewBox="0 0 100 100" version="1.1" xmlns="http://www.w3.org/2000/svg" xmlns:xlink="http://www.w3.org/1999/xlink">
    <!-- Generator: Sketch 39.1 (31720) - http://www.bohemiancoding.com/sketch -->
    <title>Artboard</title>
    <desc>Created with Sketch.</desc>
    <defs></defs>
    <g id="Page-1" stroke="none" stroke-width="1" fill="none" fill-rule="evenodd">
        <g id="Artboard">
            <g id="rugby" transform="translate(10.000000, 10.000000)">
                <g id="Group">
                    <path d="M3.39483871,46.3806452 L33.5354839,76.52 C29.9354839,77.6929032 26.2245161,78.5032258 22.4064516,78.9329032 C20.1664516,79.1870968 17.9122581,79.3148387 15.3896774,79.5225806 C13.163871,79.2980645 10.6748387,79.156129 8.22451613,78.7729032 C4.39612903,78.1741935 1.48129032,74.916129 1.00645161,71.0116129 C-0.0464516129,62.3948387 0.814193548,54.1832258 3.39483871,46.3806452 L3.39483871,46.3806452 Z" id="Shape" fill="#F1C40F"></path>
                    <path d="M9.42193548,33.4890323 C8.26193548,35.3909677 7.20903226,37.3212903 6.2683871,39.28 L40.6516129,73.6632258 C41.0116129,73.4916129 41.3716129,73.316129 41.7277419,73.1354839 C53.9858065,66.9587097 63.636129,57.8980645 70.7006452,46.1780645 C71.8090323,44.3380645 72.8167742,42.4748387 73.7225806,40.5870968 L39.3574194,6.22064516 C26.6645161,12.2529032 16.7470968,21.4787097 9.42193548,33.4890323 L9.42193548,33.4890323 Z M55.2941935,25.9858065 C55.3019355,26.3574194 55.0967742,26.7612903 54.6812903,27.1909677 C54.1470968,27.7458065 53.596129,28.2825806 52.9896774,28.8709677 C52.7019355,29.1496774 52.403871,29.4387097 52.0903226,29.7470968 L51.6903226,30.1419355 L52.1070968,30.5174194 C52.4219355,30.8 52.7264516,31.0683871 53.0193548,31.3303226 C53.6516129,31.8916129 54.2490323,32.4219355 54.8180645,32.963871 C55.5109677,33.6296774 55.7083871,34.4529032 55.4051613,35.4129032 C55.1174194,36.3225806 54.4645161,36.8606452 53.4567742,37.0296774 C52.7316129,37.1496774 52.0735484,36.9290323 51.5006452,36.3690323 C50.9303226,35.8129032 50.3729032,35.2412903 49.8348387,34.6851613 C49.6090323,34.4529032 49.3870968,34.2258065 49.1703226,34.0064516 L48.7870968,33.6180645 L42.9393548,39.7096774 L43.3574194,40.0748387 C43.5948387,40.2825806 43.8464516,40.4954839 44.1058065,40.7148387 C44.7096774,41.2258065 45.3354839,41.7535484 45.9148387,42.3303226 C46.6593548,43.0722581 46.8090323,44.163871 46.2993548,45.1109677 C46.1806452,45.3290323 46.0348387,45.5277419 45.8658065,45.6980645 C45.3006452,46.2632258 44.5380645,46.48 43.7780645,46.2916129 C43.3277419,46.1819355 42.8206452,45.8941935 42.3483871,45.483871 C41.803871,45.0129032 41.3006452,44.48 40.8141935,43.9677419 C40.6103226,43.7522581 40.4090323,43.5393548 40.2103226,43.3367742 L39.8309677,42.9483871 L34.003871,48.9935484 L34.4154839,49.3587097 C34.6503226,49.5664516 34.8954839,49.7793548 35.1470968,49.9974194 C35.7329032,50.5058065 36.3367742,51.0283871 36.9083871,51.5883871 C37.7083871,52.3729032 37.8851613,53.3832258 37.3948387,54.363871 C37.2696774,54.6116129 37.1122581,54.8322581 36.923871,55.0193548 C36.4012903,55.5419355 35.7109677,55.7574194 34.9741935,55.6245161 C34.5019355,55.5393548 33.9380645,55.2516129 33.4696774,54.8554839 C32.9225806,54.3909677 32.4077419,53.8464516 31.8645161,53.2683871 C31.6116129,53.0012903 31.3522581,52.7277419 31.0748387,52.443871 L30.6825806,52.043871 L30.3058065,52.4554839 C30.0283871,52.7587097 29.7625806,53.0541935 29.5045161,53.3380645 C28.9535484,53.9458065 28.4322581,54.5212903 27.8993548,55.0774194 C27.0232258,55.9909677 26.3406452,56.0206452 25.4554839,55.156129 C24.6129032,54.3341935 24.6232258,53.6645161 25.4890323,52.7690323 C26.0129032,52.2283871 26.5509677,51.7006452 27.1393548,51.1251613 C27.4167742,50.8541935 27.7058065,50.5703226 28.0090323,50.2696774 L28.4064516,49.8774194 L27.9922581,49.5019355 C27.683871,49.2232258 27.3922581,48.9612903 27.1083871,48.7083871 C26.5251613,48.1858065 25.9729032,47.6929032 25.4541935,47.1883871 C24.3896774,46.1496774 24.3045161,44.6774194 25.2490323,43.6890323 L25.2916129,43.643871 C26.2658065,42.6696774 27.6529032,42.7045161 28.7445161,43.7316129 C29.2903226,44.2451613 29.8154839,44.7729032 30.3212903,45.2851613 C30.5393548,45.5032258 30.7522581,45.7187097 30.96,45.923871 L31.3393548,46.3032258 L37.0206452,40.4051613 L36.0425806,39.4645161 C35.5341935,38.9754839 34.9716129,38.4348387 34.4129032,37.8941935 C33.5651613,37.076129 33.3341935,36.1883871 33.7070968,35.1767742 C33.8296774,34.84 34.0167742,34.5445161 34.2567742,34.3045161 C35.16,33.4012903 36.6090323,33.4219355 37.6245161,34.3509677 C38.1909677,34.8696774 38.7225806,35.4412903 39.236129,35.9922581 C39.4683871,36.2387097 39.6941935,36.4825806 39.92,36.7135484 L40.2993548,37.1083871 L46.1122581,31.0787097 L45.7109677,30.7122581 C45.4812903,30.5019355 45.2451613,30.2903226 45.003871,30.0722581 C44.4670968,29.5909677 43.9135484,29.0941935 43.3832258,28.5780645 C42.803871,28.0167742 42.48,27.3406452 42.4722581,26.6722581 C42.4645161,26.0722581 42.7070968,25.5045161 43.1703226,25.0322581 L43.1870968,25.0154839 C44.1548387,24.0477419 45.5883871,24.0954839 46.6748387,25.1329032 C47.2,25.6348387 47.7045161,26.1651613 48.24,26.7277419 C48.4903226,26.9896774 48.7483871,27.2606452 49.0180645,27.5380645 L49.403871,27.9354839 L49.7819355,27.5303226 C50.0735484,27.2206452 50.3509677,26.9225806 50.6193548,26.6335484 C51.1832258,26.0296774 51.7148387,25.4580645 52.2490323,24.9045161 L52.3019355,24.8516129 C53.1290323,24.0245161 53.8051613,24.0116129 54.636129,24.8064516 C55.0632258,25.2180645 55.2864516,25.6141935 55.2941935,25.9858065 L55.2941935,25.9858065 Z" id="Shape" fill="#FFFFFF"></path>
                    <path d="M76.5935484,33.4812903 L46.4683871,3.35741935 C51.1458065,1.82451613 55.9819355,0.910967742 60.9625806,0.598709677 C64.5896774,0.371612903 68.2,0.430967742 71.7806452,1.06967742 C75.5909677,1.74967742 78.5212903,4.92903226 78.9922581,8.77032258 C80.0477419,17.4129032 79.1858065,25.6477419 76.5935484,33.4812903 Z" id="Shape" fill="#F1C40F"></path>
                </g>
            </g>
        </g>
    </g>
</svg>