<?xml version="1.0" encoding="UTF-8" standalone="no"?>
<svg width="100px" height="100px" viewBox="0 0 100 100" version="1.1" xmlns="http://www.w3.org/2000/svg" xmlns:xlink="http://www.w3.org/1999/xlink">
    <!-- Generator: Sketch 39.1 (31720) - http://www.bohemiancoding.com/sketch -->
    <title>10</title>
    <desc>Created with Sketch.</desc>
    <defs></defs>
    <g id="Page-1" stroke="none" stroke-width="1" fill="none" fill-rule="evenodd">
        <g id="10">
            <g id="burger" transform="translate(8.000000, 27.000000)">
                <g id="black-and-white-burger">
                    <g id="Group">
                        <g>
                            <g transform="translate(0.590270, 0.000000)">
                                <g>
                                    <path d="M82.8648649,48.8421053 L82.8648649,54.757943 C82.8648649,59.3971082 78.7979474,63.1578947 73.7796849,63.1578947 L9.08517991,63.1578947 C4.06757359,63.1578947 0,59.4050011 0,54.757943 L0,48.8421053 L82.8648649,48.8421053 L82.8648649,48.8421053 L82.8648649,48.8421053 Z" id="Shape" fill="#FFFFFF"></path>
                                    <path d="M82.8221534,29.4736842 C82.8504074,29.7437703 82.8648649,30.0176404 82.8648649,30.2946886 L82.8648649,42.1052631 L82.8648649,42.1052631 L0,42.1052631 L0,30.2946886 C0,30.0176842 0.014499693,29.7438116 0.0428358279,29.4736842 L82.8221534,29.4736842 L82.8221534,29.4736842 Z" id="Shape-Copy" fill="#F1C40F"></path>
                                    <path d="M82.7996056,22.7368421 C82.842919,22.3336896 82.8648649,21.9275743 82.8648649,21.518797 C82.8648649,9.63429358 64.314933,0 41.4324324,0 C18.5499318,0 0,9.63429358 0,21.518797 C0,21.9275743 0.0219459259,22.3336896 0.0652592336,22.7368421 L82.7996056,22.7368421 L82.7996056,22.7368421 L82.7996056,22.7368421 Z" id="Shape" fill="#FFFFFF"></path>
                                </g>
                            </g>
                        </g>
                    </g>
                </g>
            </g>
        </g>
    </g>
</svg>