<?xml version="1.0" encoding="UTF-8" standalone="no"?>
<svg width="100px" height="100px" viewBox="0 0 100 100" version="1.1" xmlns="http://www.w3.org/2000/svg" xmlns:xlink="http://www.w3.org/1999/xlink">
    <!-- Generator: Sketch 39.1 (31720) - http://www.bohemiancoding.com/sketch -->
    <title>Artboard</title>
    <desc>Created with Sketch.</desc>
    <defs></defs>
    <g id="Page-1" stroke="none" stroke-width="1" fill="none" fill-rule="evenodd">
        <g id="Artboard">
            <g id="desktop" transform="translate(5.000000, 8.000000)">
                <g id="Group">
                    <g id="Shape">
                        <path d="M61.9825667,73.8384146 L27.0184222,73.8384146 C25.2631444,73.8384146 23.8401333,75.2598659 23.8401333,77.0132195 C23.8401333,78.7665732 25.2631444,80.1890122 27.0184222,80.1890122 L61.9825667,80.1890122 C63.7378444,80.1890122 65.1608556,78.767561 65.1608556,77.0132195 C65.1608556,75.2598659 63.7378444,73.8384146 61.9825667,73.8384146 L61.9825667,73.8384146 Z" fill="#F1C40F"></path>
                        <path d="M83.0409556,0 L5.96003333,0 C2.66802222,0 0,2.66608537 0,5.9535 L0,60.7243171 C0,64.0117317 2.66802222,66.6768293 5.96003333,66.6768293 L83.0409556,66.6768293 C86.3319778,66.6768293 89,64.0117317 89,60.7243171 L89,5.9535 C89,2.66608537 86.3319778,0 83.0409556,0 L83.0409556,0 Z M82.6424333,53.976622 L6.35657778,53.976622 L6.35657778,6.35059756 L82.6424333,6.35059756 L82.6424333,53.976622 L82.6424333,53.976622 Z" fill="#FFFFFF"></path>
                    </g>
                </g>
            </g>
            <g id="brush" transform="translate(35.000000, 24.000000)">
                <g id="Group">
                    <path d="M28.852878,0.0953953488 C27.8697073,-0.714651163 20.5061829,6.26972093 18.8683902,7.92302326 C17.4141463,9.39106977 10.0202073,17.0936744 9.2594878,19.396186 C9.41580488,19.4863721 9.57070732,19.5879535 9.72278049,19.7022326 C9.80942683,19.7666977 9.89041463,19.8347442 9.96857317,19.904093 C12.5014756,18.8046047 20.4923902,10.9857674 21.676439,9.68213953 C23.0026585,8.22223256 29.5941463,0.705860465 28.852878,0.0953953488 L28.852878,0.0953953488 Z" id="Shape" fill="#FFFFFF"></path>
                    <path d="M9.03491463,20.2589767 C7.51489024,19.1187907 5.94040244,19.565814 4.75069512,20.8303721 C3.5730122,22.0825581 3.81420732,24.1610698 3.68971951,24.8587907 C3.40820732,26.4394884 0.0887682927,27.7177209 0.0887682927,27.7177209 C0.0887682927,27.7177209 4.17741463,28.8800465 7.64079268,26.2151628 C9.94912195,24.4391163 11.0030244,21.7348372 9.03491463,20.2589767 L9.03491463,20.2589767 Z" id="Shape" fill="#F1C40F"></path>
                </g>
            </g>
        </g>
    </g>
</svg>