<?xml version="1.0" encoding="UTF-8" standalone="no"?>
<svg width="100px" height="100px" viewBox="0 0 100 100" version="1.1" xmlns="http://www.w3.org/2000/svg" xmlns:xlink="http://www.w3.org/1999/xlink">
    <!-- Generator: Sketch 39.1 (31720) - http://www.bohemiancoding.com/sketch -->
    <title>Artboard 2</title>
    <desc>Created with Sketch.</desc>
    <defs></defs>
    <g id="Page-1" stroke="none" stroke-width="1" fill="none" fill-rule="evenodd">
        <g id="Artboard-2">
            <g id="headphones" transform="translate(11.000000, 9.000000)">
                <g id="Page-1">
                    <g id="Artboard">
                        <g id="headphones">
                            <g id="Group">
                                <g id="Shape">
                                    <path d="M39,0 C17.5318604,0 0.129697675,17.5011428 0.129697675,39.0893517 C0.129697675,41.2482638 1.87018604,42.9985605 4.017,42.9985605 C6.16290697,42.9985605 7.90339535,41.2491758 7.90339535,39.0893517 C7.90339535,21.8189671 21.8263954,7.8175055 39,7.8175055 C56.1736046,7.8175055 70.0966046,21.8189671 70.0966046,39.0893517 C70.0966046,41.2482638 71.837093,42.9985605 73.983,42.9985605 C76.1298139,42.9985605 77.8703024,41.2491758 77.8703024,39.0893517 C77.8703024,17.5011428 60.4672325,0 39,0 L39,0 L39,0 Z" fill="#FFFFFF"></path>
                                    <path d="M7.90339535,82.0879121 L15.9210697,82.0879121 C17.9336511,82.0879121 19.5653024,80.447066 19.5653024,78.4231428 L19.5653024,54.4808351 C19.5653024,52.4569121 17.9336511,50.8151539 15.9210697,50.8151539 L7.90339535,50.8151539 C7.90339535,48.6571539 6.16290697,46.9068572 4.017,46.9068572 C1.87018604,46.9068572 0.129697675,48.6571539 0.129697675,50.8151539 L0.129697675,66.451989 C0.129697675,75.0876373 3.60976744,82.0879121 7.90339535,82.0879121 L7.90339535,82.0879121 L7.90339535,82.0879121 Z" fill="#F1C40F"></path>
                                    <path d="M73.983,46.9077693 C71.837093,46.9077693 70.0966046,48.658066 70.0966046,50.816066 L62.0789303,50.816066 C60.0663489,50.816066 58.4346976,52.4578242 58.4346976,54.4817472 L58.4346976,78.424055 C58.4346976,80.447978 60.0663489,82.0888242 62.0789303,82.0888242 L70.0966046,82.0888242 C74.3893256,82.0888242 77.8703024,75.0885494 77.8703024,66.4529011 L77.8703024,50.816066 C77.8703024,48.658066 76.1298139,46.9077693 73.983,46.9077693 L73.983,46.9077693 L73.983,46.9077693 Z" fill="#F1C40F"></path>
                                </g>
                            </g>
                        </g>
                    </g>
                </g>
            </g>
        </g>
    </g>
</svg>