<?xml version="1.0" encoding="UTF-8" standalone="no"?>
<svg width="100px" height="100px" viewBox="0 0 100 100" version="1.1" xmlns="http://www.w3.org/2000/svg" xmlns:xlink="http://www.w3.org/1999/xlink">
    <!-- Generator: Sketch 39.1 (31720) - http://www.bohemiancoding.com/sketch -->
    <title>Artboard</title>
    <desc>Created with Sketch.</desc>
    <defs></defs>
    <g id="Page-1" stroke="none" stroke-width="1" fill="none" fill-rule="evenodd">
        <g id="Artboard" fill="#000000">
            <g id="noun_412005_cc" transform="translate(21.000000, 7.000000)">
                <g id="Group">
                    <g id="Shape">
                        <path d="M34.2330357,65.7268 C33.994308,65.9586667 33.8582589,66.2719333 33.8582589,66.6 L33.8582589,72.7666667 C33.8582589,73.4474667 34.4332589,74 35.1417411,74 L41.5591518,74 C41.900558,74 42.2265625,73.8692667 42.4652902,73.6398667 L60.8113839,56.0130667 L52.5791295,48.1024667 L34.2330357,65.7268 L34.2330357,65.7268 Z"></path>
                        <path d="M68.134933,47.2268 L61.7175223,41.0601333 C61.2169643,40.5791333 60.4032366,40.5791333 59.9026786,41.0601333 L54.3939732,46.3560667 L62.6262277,54.2666667 L68.134933,48.9732 C68.638058,48.4897333 68.638058,47.7102667 68.134933,47.2268 L68.134933,47.2268 Z"></path>
                        <path d="M14.6060268,12.3333333 L42.8426339,12.3333333 C43.5511161,12.3333333 44.1261161,11.7808 44.1261161,11.1 L44.1261161,8.63333333 C44.1261161,5.2318 41.2485491,2.46666667 37.7087054,2.46666667 L33.1549107,2.46666667 C32.2462054,0.964466667 30.5648437,0 28.7243304,0 C26.883817,0 25.2024554,0.964466667 24.29375,2.46666667 L19.7399554,2.46666667 C16.2001116,2.46666667 13.3225446,5.2318 13.3225446,8.63333333 L13.3225446,11.1 C13.3225446,11.7808 13.8975446,12.3333333 14.6060268,12.3333333 L14.6060268,12.3333333 Z"></path>
                        <path d="M56.9609375,39.8909333 L56.9609375,11.7166667 C56.9609375,9.33633333 54.9458705,7.4 52.46875,7.4 L47.9765625,7.4 C47.2680804,7.4 46.6930804,7.95253333 46.6930804,8.63333333 L46.6930804,11.1 C46.6930804,13.1399333 44.9655134,14.8 42.8426339,14.8 L14.6060268,14.8 C12.4831473,14.8 10.7555804,13.1399333 10.7555804,11.1 L10.7555804,8.63333333 C10.7555804,7.95253333 10.1805804,7.4 9.47209821,7.4 L4.97991071,7.4 C2.50279018,7.4 0.487723214,9.33633333 0.487723214,11.7166667 L0.487723214,69.6833333 C0.487723214,72.0636667 2.50279018,74 4.97991071,74 L30.0078125,74 C30.7162946,74 31.2912946,73.4474667 31.2912946,72.7666667 L31.2912946,66.6 C31.2912946,65.6256667 31.7020089,64.6735333 32.418192,63.9828667 L56.5835937,40.7616667 C56.8248884,40.5322667 56.9609375,40.219 56.9609375,39.8909333 L56.9609375,39.8909333 Z"></path>
                    </g>
                </g>
            </g>
        </g>
    </g>
</svg>