<?xml version="1.0" encoding="UTF-8" standalone="no"?>
<svg width="100px" height="100px" viewBox="0 0 100 100" version="1.1" xmlns="http://www.w3.org/2000/svg" xmlns:xlink="http://www.w3.org/1999/xlink">
    <!-- Generator: Sketch 39.1 (31720) - http://www.bohemiancoding.com/sketch -->
    <title>Artboard 2</title>
    <desc>Created with Sketch.</desc>
    <defs></defs>
    <g id="Page-1" stroke="none" stroke-width="1" fill="none" fill-rule="evenodd">
        <g id="Artboard-2" fill="#000000">
            <g id="noun_71773_cc" transform="translate(7.000000, 23.000000)">
                <g id="Group">
                    <path d="M49.426875,28.9334375 L84.690875,0 L3.2045,0 L37.5985,28.94375 C40.792125,31.58375 46.215125,31.58375 49.426875,28.9334375 L49.426875,28.9334375 L49.426875,28.9334375 Z" id="Shape"></path>
                    <path d="M51.80125,31.52875 C49.5147812,33.4159375 46.512375,34.3586719 43.503625,34.3586719 C40.494875,34.3586719 37.48975,33.4159375 35.19875,31.5253125 L0,1.904375 L0,53.28125 C0,54.23 0.812,55 1.8125,55 L85.1875,55 C86.184375,55 87,54.23 87,53.28125 L87,2.6503125 L51.80125,31.52875 L51.80125,31.52875 Z" id="Shape"></path>
                </g>
            </g>
        </g>
    </g>
</svg>