<?xml version="1.0" encoding="UTF-8" standalone="no"?>
<svg width="100px" height="100px" viewBox="0 0 100 100" version="1.1" xmlns="http://www.w3.org/2000/svg" xmlns:xlink="http://www.w3.org/1999/xlink">
    <!-- Generator: Sketch 39.1 (31720) - http://www.bohemiancoding.com/sketch -->
    <title>Artboard 4</title>
    <desc>Created with Sketch.</desc>
    <defs></defs>
    <g id="Page-1" stroke="none" stroke-width="1" fill="none" fill-rule="evenodd">
        <g id="Artboard-4" fill="#000000">
            <g id="noun_143848_cc" transform="translate(15.000000, 10.000000)">
                <g id="Group">
                    <g id="Shape">
                        <path d="M20.9027778,32.0083333 C21.5833333,32.0083333 22.2638889,31.5291667 22.4583333,30.8583333 C23.0416667,28.8458333 24.1111111,27.025 25.7638889,25.3958333 C30.1388889,21.0833333 36.75,20.5083333 41.7083333,23.4791667 C42.2916667,23.8625 43.1666667,23.7666667 43.6527778,23.2875 L56.7777778,10.35 C57.4583333,9.67916667 57.3611111,8.625 56.6805556,7.95416667 C42.9722222,-2.68333333 23.1388889,-1.91666667 10.5,10.5416667 C4.95833333,16.0041667 1.65277778,23 0.680555556,30.1875 C0.583333333,31.1458333 1.26388889,32.0083333 2.23611111,32.0083333 L20.9027778,32.0083333 L20.9027778,32.0083333 Z"></path>
                        <path d="M46.375,26.0666667 C45.8888889,26.5458333 45.7916667,27.3125 46.1805556,27.9833333 C49.1944444,32.9666667 48.6111111,39.4833333 44.2361111,43.7 C42.6805556,45.2333333 40.7361111,46.3833333 38.6944444,46.9583333 C38.0138889,47.15 37.5277778,47.725 37.5277778,48.4916667 L37.5277778,66.7958333 C37.5277778,67.7541667 38.4027778,68.5208333 39.375,68.3291667 C46.6666667,67.3708333 53.7638889,64.2083333 59.4027778,58.65 C71.9444444,46.1916667 72.7222222,26.6416667 61.8333333,13.225 C61.25,12.4583333 60.0833333,12.4583333 59.4027778,13.1291667 L46.375,26.0666667 L46.375,26.0666667 Z"></path>
                        <path d="M33.6388889,48.6833333 C33.6388889,47.9166667 33.0555556,47.3416667 32.375,47.15 C29.9444444,46.6708333 27.6111111,45.5208333 25.6666667,43.6041667 C23.8194444,41.7833333 22.5555556,39.4833333 22.0694444,36.9916667 C21.875,36.225 21.2916667,35.7458333 20.5138889,35.7458333 L2.04166667,35.7458333 C1.06944444,35.7458333 0.388888889,36.5125 0.486111111,37.4708333 C1.16666667,45.1375 4.47222222,52.6125 10.5,58.5541667 C16.4305556,64.4 24.1111111,67.7541667 31.8888889,68.425 C32.8611111,68.5208333 33.6388889,67.7541667 33.6388889,66.8916667 L33.6388889,48.6833333 L33.6388889,48.6833333 Z"></path>
                    </g>
                </g>
            </g>
        </g>
    </g>
</svg>